<mxfile host="app.diagrams.net" modified="2022-05-23T00:48:29.777Z" agent="5.0 (Windows NT 10.0; Win64; x64) AppleWebKit/537.36 (KHTML, like Gecko) Chrome/101.0.0.0 Safari/537.36" etag="oPHryiR2bJ344YXdyuNG" version="18.1.1" type="github">
  <diagram id="al_IXY6fUMPGHB1Z6XzG" name="Page-1">
    <mxGraphModel dx="1278" dy="539" grid="1" gridSize="10" guides="1" tooltips="1" connect="1" arrows="1" fold="1" page="1" pageScale="1" pageWidth="827" pageHeight="1169" math="0" shadow="0">
      <root>
        <mxCell id="0" />
        <mxCell id="1" parent="0" />
        <mxCell id="ypslxdYUAerQEdAFZnFJ-1" value="Karen Brigith Gonzaga Rivas" style="shape=note;whiteSpace=wrap;html=1;backgroundOutline=1;darkOpacity=0.05;size=15;" vertex="1" parent="1">
          <mxGeometry x="10" y="30" width="450" height="30" as="geometry" />
        </mxCell>
        <mxCell id="ypslxdYUAerQEdAFZnFJ-33" value="" style="endArrow=none;html=1;rounded=0;" edge="1" parent="1" source="ypslxdYUAerQEdAFZnFJ-2" target="ypslxdYUAerQEdAFZnFJ-25">
          <mxGeometry relative="1" as="geometry" />
        </mxCell>
        <mxCell id="ypslxdYUAerQEdAFZnFJ-2" value="Estudiante" style="shape=umlActor;verticalLabelPosition=bottom;verticalAlign=top;html=1;outlineConnect=0;" vertex="1" parent="1">
          <mxGeometry x="430" y="110" width="30" height="60" as="geometry" />
        </mxCell>
        <mxCell id="ypslxdYUAerQEdAFZnFJ-3" value="Sistema Oficina Estudiantes" style="shape=umlFrame;whiteSpace=wrap;html=1;width=280;height=30;" vertex="1" parent="1">
          <mxGeometry x="86" y="70" width="320" height="420" as="geometry" />
        </mxCell>
        <mxCell id="ypslxdYUAerQEdAFZnFJ-5" value="Matricular&amp;nbsp;" style="ellipse;whiteSpace=wrap;html=1;" vertex="1" parent="1">
          <mxGeometry x="96" y="200" width="82.5" height="40" as="geometry" />
        </mxCell>
        <mxCell id="ypslxdYUAerQEdAFZnFJ-6" value="Registrar" style="ellipse;whiteSpace=wrap;html=1;" vertex="1" parent="1">
          <mxGeometry x="198.5" y="200" width="75" height="40" as="geometry" />
        </mxCell>
        <mxCell id="ypslxdYUAerQEdAFZnFJ-7" value="Retirar Matricula" style="ellipse;whiteSpace=wrap;html=1;" vertex="1" parent="1">
          <mxGeometry x="296" y="200" width="80" height="40" as="geometry" />
        </mxCell>
        <mxCell id="ypslxdYUAerQEdAFZnFJ-11" value="" style="endArrow=none;html=1;rounded=0;" edge="1" parent="1" source="ypslxdYUAerQEdAFZnFJ-8" target="ypslxdYUAerQEdAFZnFJ-10">
          <mxGeometry relative="1" as="geometry" />
        </mxCell>
        <mxCell id="ypslxdYUAerQEdAFZnFJ-8" value="Profesor" style="shape=umlActor;verticalLabelPosition=bottom;verticalAlign=top;html=1;outlineConnect=0;" vertex="1" parent="1">
          <mxGeometry x="20" y="410" width="30" height="60" as="geometry" />
        </mxCell>
        <mxCell id="ypslxdYUAerQEdAFZnFJ-10" value="Enviar calificación&amp;nbsp;" style="ellipse;whiteSpace=wrap;html=1;verticalAlign=top;" vertex="1" parent="1">
          <mxGeometry x="191" y="415" width="90" height="50" as="geometry" />
        </mxCell>
        <mxCell id="ypslxdYUAerQEdAFZnFJ-14" value="" style="endArrow=none;html=1;rounded=0;" edge="1" parent="1" source="ypslxdYUAerQEdAFZnFJ-12" target="ypslxdYUAerQEdAFZnFJ-13">
          <mxGeometry relative="1" as="geometry" />
        </mxCell>
        <mxCell id="ypslxdYUAerQEdAFZnFJ-17" value="" style="endArrow=none;html=1;rounded=0;" edge="1" parent="1" source="ypslxdYUAerQEdAFZnFJ-12" target="ypslxdYUAerQEdAFZnFJ-16">
          <mxGeometry relative="1" as="geometry" />
        </mxCell>
        <mxCell id="ypslxdYUAerQEdAFZnFJ-19" value="" style="endArrow=none;html=1;rounded=0;entryX=0;entryY=0.5;entryDx=0;entryDy=0;" edge="1" parent="1" source="ypslxdYUAerQEdAFZnFJ-12" target="ypslxdYUAerQEdAFZnFJ-18">
          <mxGeometry relative="1" as="geometry" />
        </mxCell>
        <mxCell id="ypslxdYUAerQEdAFZnFJ-12" value="AdminEmp" style="shape=umlActor;verticalLabelPosition=bottom;verticalAlign=top;html=1;outlineConnect=0;" vertex="1" parent="1">
          <mxGeometry x="20" y="270" width="30" height="60" as="geometry" />
        </mxCell>
        <mxCell id="ypslxdYUAerQEdAFZnFJ-13" value="Crear &lt;br&gt;Curso" style="ellipse;whiteSpace=wrap;html=1;verticalAlign=top;" vertex="1" parent="1">
          <mxGeometry x="101" y="305" width="80" height="40" as="geometry" />
        </mxCell>
        <mxCell id="ypslxdYUAerQEdAFZnFJ-16" value="Imprimir certificado" style="ellipse;whiteSpace=wrap;html=1;verticalAlign=top;" vertex="1" parent="1">
          <mxGeometry x="98.5" y="250" width="82.5" height="50" as="geometry" />
        </mxCell>
        <mxCell id="ypslxdYUAerQEdAFZnFJ-18" value="Emitir información&amp;nbsp;" style="ellipse;whiteSpace=wrap;html=1;verticalAlign=top;" vertex="1" parent="1">
          <mxGeometry x="101" y="360" width="80" height="50" as="geometry" />
        </mxCell>
        <mxCell id="ypslxdYUAerQEdAFZnFJ-20" value="Reservar &lt;br&gt;sala" style="ellipse;whiteSpace=wrap;html=1;verticalAlign=top;" vertex="1" parent="1">
          <mxGeometry x="296" y="300" width="80" height="50" as="geometry" />
        </mxCell>
        <mxCell id="ypslxdYUAerQEdAFZnFJ-24" value="&amp;lt;&amp;lt;extends&amp;gt;&amp;gt;" style="endArrow=open;endSize=12;dashed=1;html=1;rounded=0;entryX=1;entryY=0.5;entryDx=0;entryDy=0;exitX=0;exitY=0.5;exitDx=0;exitDy=0;" edge="1" parent="1" source="ypslxdYUAerQEdAFZnFJ-20" target="ypslxdYUAerQEdAFZnFJ-13">
          <mxGeometry width="160" relative="1" as="geometry">
            <mxPoint x="206" y="410" as="sourcePoint" />
            <mxPoint x="366" y="410" as="targetPoint" />
          </mxGeometry>
        </mxCell>
        <mxCell id="ypslxdYUAerQEdAFZnFJ-25" value="&amp;lt;&amp;lt;abstract&amp;gt;&amp;gt;&lt;br&gt;Gestiona datos estudiantes" style="ellipse;whiteSpace=wrap;html=1;" vertex="1" parent="1">
          <mxGeometry x="181" y="110" width="110" height="60" as="geometry" />
        </mxCell>
        <mxCell id="ypslxdYUAerQEdAFZnFJ-28" value="" style="endArrow=block;endSize=16;endFill=0;html=1;rounded=0;exitX=0.5;exitY=0;exitDx=0;exitDy=0;entryX=0.5;entryY=1;entryDx=0;entryDy=0;" edge="1" parent="1" source="ypslxdYUAerQEdAFZnFJ-6" target="ypslxdYUAerQEdAFZnFJ-25">
          <mxGeometry y="40" width="160" relative="1" as="geometry">
            <mxPoint x="186" y="180" as="sourcePoint" />
            <mxPoint x="336" y="180" as="targetPoint" />
            <mxPoint as="offset" />
          </mxGeometry>
        </mxCell>
        <mxCell id="ypslxdYUAerQEdAFZnFJ-29" value="" style="endArrow=block;endSize=16;endFill=0;html=1;rounded=0;exitX=0.5;exitY=0;exitDx=0;exitDy=0;entryX=0;entryY=1;entryDx=0;entryDy=0;" edge="1" parent="1" source="ypslxdYUAerQEdAFZnFJ-5" target="ypslxdYUAerQEdAFZnFJ-25">
          <mxGeometry y="40" width="160" relative="1" as="geometry">
            <mxPoint x="246" y="210" as="sourcePoint" />
            <mxPoint x="174.3800000000001" y="174.60000000000002" as="targetPoint" />
            <mxPoint as="offset" />
          </mxGeometry>
        </mxCell>
        <mxCell id="ypslxdYUAerQEdAFZnFJ-30" value="" style="endArrow=block;endSize=16;endFill=0;html=1;rounded=0;exitX=0.5;exitY=0;exitDx=0;exitDy=0;entryX=1;entryY=1;entryDx=0;entryDy=0;" edge="1" parent="1" source="ypslxdYUAerQEdAFZnFJ-7" target="ypslxdYUAerQEdAFZnFJ-25">
          <mxGeometry y="40" width="160" relative="1" as="geometry">
            <mxPoint x="256" y="220" as="sourcePoint" />
            <mxPoint x="184.3800000000001" y="184.60000000000002" as="targetPoint" />
            <mxPoint as="offset" />
          </mxGeometry>
        </mxCell>
        <mxCell id="ypslxdYUAerQEdAFZnFJ-36" value="" style="endArrow=none;html=1;rounded=0;" edge="1" parent="1" source="ypslxdYUAerQEdAFZnFJ-34" target="ypslxdYUAerQEdAFZnFJ-25">
          <mxGeometry relative="1" as="geometry">
            <mxPoint x="190" y="140" as="targetPoint" />
          </mxGeometry>
        </mxCell>
        <mxCell id="ypslxdYUAerQEdAFZnFJ-34" value="SerEmp" style="shape=umlActor;verticalLabelPosition=bottom;verticalAlign=top;html=1;outlineConnect=0;" vertex="1" parent="1">
          <mxGeometry x="20" y="110" width="30" height="60" as="geometry" />
        </mxCell>
      </root>
    </mxGraphModel>
  </diagram>
</mxfile>
